<svg xmlns="http://www.w3.org/2000/svg" shape-rendering="crispEdges" viewBox="0 0 31 31"><path fill="#fff" d="M0 0h31v31H0z"/><path fill="#000" d="M0 0h7v1H0zm8 0h1v1H8zm2 0h2v1h-2zm3 0h2v1h-2zm3 0h8v1h-8zm9 0h6v1h-6zM0 1h1v1H0zm6 0h1v1H6zm2 0h2v1H8zm5 0h1v1h-1zm3 0h1v1h-1zm3 0h2v1h-2zm3 0h1v1h-1zm6 0h1v1h-1zm2 0h1v1h-1zM0 2h1v1H0zm2 0h3v1H2zm6 0h1v1H8zm2 0h1v1h-1zm3 0h2v1h-2zm3 0h1v1h-1zm3 0h2v1h-2zm3 0h3v1h-3zm5 0h1v1h-1zM0 3h1v1H0zm2 0h3v1H2zm6 0h1v1H8zm2 0h1v1h-1zm3 0h1v1h-1zm3 0h2v1h-2zm4 0h1v1h-1zm3 0h1v1h-1zm2 0h1v1h-1zm2 0h1v1h-1zM0 4h1v1H0zm2 0h3v1H2zm6 0h1v1H8zm3 0h3v1h-3zm5 0h1v1h-1zm2 0h1v1h-1zm3 0h1v1h-1zm5 0h1v1h-1zM0 5h1v1H0zm6 0h1v1H6zm2 0h5v1H8zm7 0h1v1h-1zm5 0h2v1h-2zm4 0h1v1h-1zm3 0h1v1h-1zm2 0h1v1h-1zM0 6h7v1H0zm8 0h1v1H8zm3 0h1v1h-1zm3 0h1v1h-1zm3 0h1v1h-1zm3 0h1v1h-1zm3 0h1v1h-1zm3 0h1v1h-1zm3 0h1v1h-1zM8 7h1v1H8zm2 0h3v1h-3zm4 0h1v1h-1zm2 0h2v1h-2zm3 0h1v1h-1zm5 0h2v1h-2zm3 0h1v1h-1zM0 8h2v1H0zm6 0h2v1H6zm3 0h2v1h-2zm3 0h1v1h-1zm2 0h2v1h-2zm5 0h1v1h-1zm2 0h3v1h-3zm4 0h2v1h-2zM0 9h1v1H0zm3 0h2v1H3zm3 0h1v1H6zm2 0h2v1H8zm3 0h3v1h-3zm4 0h1v1h-1zm4 0h5v1h-5zm6 0h1v1h-1zM1 10h2v1H1zm4 0h2v1H5zm6 0h2v1h-2zm3 0h3v1h-3zm4 0h1v1h-1zm2 0h1v1h-1zm3 0h2v1h-2zM0 11h1v1H0zm2 0h4v1H2zm5 0h1v1H7zm4 0h2v1h-2zm3 0h2v1h-2zm4 0h2v1h-2zm3 0h1v1h-1zm2 0h3v1h-3zM1 12h6v1H1zm8 0h1v1H9zm2 0h1v1h-1zm3 0h3v1h-3zm4 0h1v1h-1zm5 0h1v1h-1zm3 0h1v1h-1zm2 0h1v1h-1zM0 13h2v1H0zm3 0h4v1H3zm8 0h6v1h-6zm7 0h6v1h-6zm7 0h4v1h-4zM0 14h1v1H0zm2 0h1v1H2zm4 0h1v1H6zm4 0h3v1h-3zm4 0h2v1h-2zm5 0h3v1h-3zm4 0h3v1h-3zM0 15h2v1H0zm4 0h2v1H4zm3 0h1v1H7zm2 0h1v1H9zm2 0h2v1h-2zm3 0h1v1h-1zm2 0h3v1h-3zm6 0h3v1h-3zm4 0h1v1h-1zM0 16h1v1H0zm3 0h1v1H3zm5 0h3v1H8zm4 0h2v1h-2zm4 0h1v1h-1zm4 0h1v1h-1zm3 0h1v1h-1zm2 0h1v1h-1zm2 0h1v1h-1zM3 17h3v1H3zm4 0h2v1H7zm3 0h1v1h-1zm4 0h2v1h-2zm4 0h4v1h-4zm5 0h1v1h-1zm2 0h1v1h-1zM0 18h7v1H0zm8 0h1v1H8zm3 0h1v1h-1zm3 0h1v1h-1zm3 0h1v1h-1zm5 0h1v1h-1zm3 0h2v1h-2zm3 0h1v1h-1zM0 19h1v1H0zm6 0h1v1H6zm3 0h2v1h-2zm3 0h2v1h-2zm7 0h3v1h-3zm5 0h1v1h-1zm3 0h1v1h-1zM0 20h1v1H0zm2 0h3v1H2zm6 0h2v1H8zm3 0h1v1h-1zm2 0h1v1h-1zm4 0h1v1h-1zm2 0h3v1h-3zm5 0h3v1h-3zM0 21h1v1H0zm2 0h3v1H2zm6 0h1v1H8zm2 0h1v1h-1zm3 0h3v1h-3zm4 0h3v1h-3zm5 0h1v1h-1zm2 0h1v1h-1zm2 0h3v1h-3zM0 22h1v1H0zm2 0h3v1H2zm6 0h1v1H8zm3 0h1v1h-1zm3 0h1v1h-1zm3 0h1v1h-1zm2 0h1v1h-1zm4 0h1v1h-1zm2 0h3v1h-3zM0 23h1v1H0zm6 0h1v1H6zm3 0h1v1h-1zm2 0h3v1h-2zm4 0h3v1h-3zm5 0h6v1h-6zM0 24h7v1H0zm8 0h2v1H8zm3 0h1v1h-1zm4 0h2v1h-2zm3 0h3v1h-3zm5 0h1v1h-1zm3 0h2v1h-2zM8 25h4v1H8zm6 0h1v1h-1zm4 0h1v1h-1zm2 0h1v1h-1zm2 0h3v1h-3zm4 0h3v1h-3zM0 26h2v1H0zm3 0h2v1H3zm6 0h1v1H9zm3 0h2v1h-2zm3 0h1v1h-1zm2 0h3v1h-3zm5 0h5v1h-5zM1 27h1v1H1zm5 0h1v1H6zm3 0h1v1H9zm2 0h2v1h-2zm4 0h1v1h-1zm2 0h1v1h-1zm4 0h1v1h-1zm2 0h2v1h-2zm3 0h1v1h-1zM3 28h2v1H3zm3 0h3v1H6zm4 0h4v1h-4zm5 0h1v1h-1zm4 0h1v1h-1zm2 0h1v1h-1zm2 0h3v1h-3zm4 0h1v1h-1zM0 29h7v1H0zm8 0h1v1H8zm2 0h3v1h-3zm4 0h1v1h-1zm2 0h2v1h-2zm3 0h1v1h-1zm2 0h1v1h-1zm3 0h1v1h-1zm2 0h2v1h-2zM0 30h1v1H0zm2 0h1v1H2zm2 0h2v1H4zm3 0h2v1H7zm4 0h3v1h-3zm4 0h2v1h-2zm3 0h2v1h-2zm3 0h2v1h-2z"/></svg>